# xmcd
#
# Track frame offsets:
#	150
#	14637
#	28940
#	43576
#	58678
#	73529
#	90516
#	108635
#	124227
#	147542
#	162428
#	175980
#	192794
#	214067
#
# Disc length: 2982 seconds
#
# Revision: 1
# Processed by: cddbd v1.5.2PL0 Copyright (c) Steve Scherf et al.
# Submitted via: audiograbber 1.83.01
#
DISCID=d20ba40e
DTITLE=Eva Eastwood - Ton Of Heart
DYEAR=2006
DGENRE=Country
TTITLE0=Come On In
TTITLE1=Like That No More
TTITLE2=Pusher
TTITLE3=I'll Be Gone
TTITLE4=Th Heaven On 5th Floor
TTITLE5=Your Ton Of Heart
TTITLE6=Hudson River
TTITLE7=No One But Me
TTITLE8=Johannestown
TTITLE9=Homeward Bound Bus
TTITLE10=Between Us
TTITLE11=That Much
TTITLE12=Waste It
TTITLE13=The Riverflow
EXTD=
EXTT0=
EXTT1=
EXTT2=
EXTT3=
EXTT4=
EXTT5=
EXTT6=
EXTT7=
EXTT8=
EXTT9=
EXTT10=
EXTT11=
EXTT12=
EXTT13=
PLAYORDER=
